# MagicaVoxel @ Ephtracy

# group
o 

# material
mtllib white-black_handle.mtl
usemtl palette

# normals
vn -1 0 0
vn 1 0 0
vn 0 0 1
vn 0 0 -1
vn 0 -1 0
vn 0 1 0

# texcoords
vt 0.958984 0.5
vt 0.994141 0.5

# verts
v 0 2.2 -0.4
v 0 2.2 -0.6
v 0 2.3 -0.4
v 0 2.3 -0.6
v 0.2 2.2 -0.5
v 0.2 2.2 -0.6
v 0.2 2.3 -0.5
v 0.2 2.3 -0.6
v 0.4 2 -0.5
v 0.4 2 -0.6
v 0.4 2.1 -0.4
v 0.4 2.1 -0.5
v 0.4 2.2 -0.3
v 0.4 2.2 -0.4
v 0.4 2.2 -0.6
v 0.4 2.2 -0.7
v 0.4 2.3 -0.3
v 0.4 2.3 -0.4
v 0.4 2.3 -0.6
v 0.4 2.3 -0.7
v 0.4 2.4 -0.4
v 0.4 2.4 -0.5
v 0.4 2.5 -0.4
v 0.4 2.5 -0.5
v 0.4 2.5 -0.6
v 0.4 2.6 -0.5
v 0.4 2.6 -0.6
v 0.4 2.7 -0.5
v 0.4 2.7 -0.6
v 0.4 2.8 -0.5
v 0.4 2.8 -0.6
v 0.4 2.9 -0.4
v 0.4 2.9 -0.5
v 0.4 3 -0.5
v 0.4 3 -0.6
v 0.5 2 -0.4
v 0.5 2 -0.5
v 0.5 2.1 -0.4
v 0.5 2.1 -0.5
v 0.5 2.4 -0.4
v 0.5 2.4 -0.5
v 0.5 2.5 -0.4
v 0.5 2.5 -0.5
v 0.5 2.5 -0.6
v 0.5 2.6 -0.5
v 0.5 2.6 -0.6
v 0.5 2.7 -0.5
v 0.5 2.7 -0.6
v 0.5 2.8 -0.5
v 0.5 2.8 -0.6
v 0.5 2.9 -0.4
v 0.5 2.9 -0.5
v 0.5 3 -0.4
v 0.5 3 -0.5
v 0.8 2.2 -0.4
v 0.8 2.2 -0.5
v 0.8 2.3 -0.4
v 0.8 2.3 -0.5
v 0.1 2.2 -0.5
v 0.1 2.2 -0.6
v 0.1 2.3 -0.5
v 0.1 2.3 -0.6
v 0.5 2.1 -0.5
v 0.5 2.1 -0.6
v 0.5 2.2 -0.5
v 0.5 2.2 -0.6
v 0.5 2.4 -0.5
v 0.5 2.4 -0.6
v 0.5 2.5 -0.5
v 0.5 2.5 -0.6
v 0.5 2.7 -0.4
v 0.5 2.7 -0.5
v 0.5 2.8 -0.4
v 0.5 2.8 -0.5
v 0.5 2.9 -0.5
v 0.5 2.9 -0.6
v 0.5 3 -0.5
v 0.5 3 -0.6
v 0.6 2 -0.4
v 0.6 2 -0.6
v 0.6 2.1 -0.5
v 0.6 2.1 -0.6
v 0.6 2.2 -0.3
v 0.6 2.2 -0.4
v 0.6 2.2 -0.5
v 0.6 2.2 -0.6
v 0.6 2.2 -0.7
v 0.6 2.3 -0.3
v 0.6 2.3 -0.4
v 0.6 2.3 -0.6
v 0.6 2.3 -0.7
v 0.6 2.4 -0.5
v 0.6 2.4 -0.6
v 0.6 2.5 -0.5
v 0.6 2.5 -0.6
v 0.6 2.7 -0.4
v 0.6 2.7 -0.5
v 0.6 2.8 -0.4
v 0.6 2.8 -0.5
v 0.6 2.9 -0.5
v 0.6 2.9 -0.6
v 0.6 3 -0.4
v 0.6 3 -0.5
v 0.7 2.2 -0.4
v 0.7 2.2 -0.5
v 0.7 2.3 -0.4
v 0.7 2.3 -0.5
v 1 2.2 -0.4
v 1 2.2 -0.6
v 1 2.3 -0.4
v 1 2.3 -0.6
v 0.4 2.2 -0.3
v 0.4 2.3 -0.3
v 0.6 2.2 -0.3
v 0.6 2.3 -0.3
v 0 2.2 -0.4
v 0 2.3 -0.4
v 0.4 2.1 -0.4
v 0.4 2.2 -0.4
v 0.4 2.3 -0.4
v 0.4 2.4 -0.4
v 0.4 2.5 -0.4
v 0.4 2.9 -0.4
v 0.5 2 -0.4
v 0.5 2.1 -0.4
v 0.5 2.4 -0.4
v 0.5 2.5 -0.4
v 0.5 2.7 -0.4
v 0.5 2.8 -0.4
v 0.5 2.9 -0.4
v 0.5 3 -0.4
v 0.6 2 -0.4
v 0.6 2.2 -0.4
v 0.6 2.3 -0.4
v 0.6 2.7 -0.4
v 0.6 2.8 -0.4
v 0.6 3 -0.4
v 0.7 2.2 -0.4
v 0.7 2.3 -0.4
v 0.8 2.2 -0.4
v 0.8 2.3 -0.4
v 1 2.2 -0.4
v 1 2.3 -0.4
v 0.4 2 -0.5
v 0.4 2.1 -0.5
v 0.4 2.4 -0.5
v 0.4 2.5 -0.5
v 0.4 2.9 -0.5
v 0.4 3 -0.5
v 0.5 2 -0.5
v 0.5 2.1 -0.5
v 0.5 2.4 -0.5
v 0.5 2.5 -0.5
v 0.5 2.7 -0.5
v 0.5 2.8 -0.5
v 0.5 2.9 -0.5
v 0.5 3 -0.5
v 0.6 2.7 -0.5
v 0.6 2.8 -0.5
v 0.7 2.2 -0.5
v 0.7 2.3 -0.5
v 0.8 2.2 -0.5
v 0.8 2.3 -0.5
v 0.1 2.2 -0.5
v 0.1 2.3 -0.5
v 0.2 2.2 -0.5
v 0.2 2.3 -0.5
v 0.4 2.5 -0.5
v 0.4 2.6 -0.5
v 0.4 2.7 -0.5
v 0.4 2.8 -0.5
v 0.5 2.1 -0.5
v 0.5 2.2 -0.5
v 0.5 2.4 -0.5
v 0.5 2.5 -0.5
v 0.5 2.6 -0.5
v 0.5 2.7 -0.5
v 0.5 2.8 -0.5
v 0.5 2.9 -0.5
v 0.5 3 -0.5
v 0.6 2.1 -0.5
v 0.6 2.2 -0.5
v 0.6 2.4 -0.5
v 0.6 2.5 -0.5
v 0.6 2.9 -0.5
v 0.6 3 -0.5
v 0 2.2 -0.6
v 0 2.3 -0.6
v 0.1 2.2 -0.6
v 0.1 2.3 -0.6
v 0.2 2.2 -0.6
v 0.2 2.3 -0.6
v 0.4 2 -0.6
v 0.4 2.2 -0.6
v 0.4 2.3 -0.6
v 0.4 2.5 -0.6
v 0.4 2.6 -0.6
v 0.4 2.7 -0.6
v 0.4 2.8 -0.6
v 0.4 3 -0.6
v 0.5 2.1 -0.6
v 0.5 2.2 -0.6
v 0.5 2.4 -0.6
v 0.5 2.5 -0.6
v 0.5 2.6 -0.6
v 0.5 2.7 -0.6
v 0.5 2.8 -0.6
v 0.5 2.9 -0.6
v 0.5 3 -0.6
v 0.6 2 -0.6
v 0.6 2.1 -0.6
v 0.6 2.2 -0.6
v 0.6 2.3 -0.6
v 0.6 2.4 -0.6
v 0.6 2.5 -0.6
v 0.6 2.9 -0.6
v 1 2.2 -0.6
v 1 2.3 -0.6
v 0.4 2.2 -0.7
v 0.4 2.3 -0.7
v 0.6 2.2 -0.7
v 0.6 2.3 -0.7
v 0.5 2 -0.4
v 0.6 2 -0.4
v 0.4 2 -0.5
v 0.5 2 -0.5
v 0.4 2 -0.6
v 0.6 2 -0.6
v 0.4 2.1 -0.4
v 0.5 2.1 -0.4
v 0.4 2.1 -0.5
v 0.5 2.1 -0.5
v 0.4 2.2 -0.3
v 0.6 2.2 -0.3
v 0 2.2 -0.4
v 0.4 2.2 -0.4
v 0.6 2.2 -0.4
v 0.7 2.2 -0.4
v 0.8 2.2 -0.4
v 1 2.2 -0.4
v 0.1 2.2 -0.5
v 0.2 2.2 -0.5
v 0.5 2.2 -0.5
v 0.6 2.2 -0.5
v 0.7 2.2 -0.5
v 0.8 2.2 -0.5
v 0 2.2 -0.6
v 0.1 2.2 -0.6
v 0.2 2.2 -0.6
v 0.4 2.2 -0.6
v 0.5 2.2 -0.6
v 0.6 2.2 -0.6
v 1 2.2 -0.6
v 0.4 2.2 -0.7
v 0.6 2.2 -0.7
v 0.4 2.5 -0.4
v 0.5 2.5 -0.4
v 0.4 2.5 -0.5
v 0.5 2.5 -0.5
v 0.6 2.5 -0.5
v 0.5 2.5 -0.6
v 0.6 2.5 -0.6
v 0.4 2.6 -0.5
v 0.5 2.6 -0.5
v 0.4 2.6 -0.6
v 0.5 2.6 -0.6
v 0.5 2.8 -0.4
v 0.6 2.8 -0.4
v 0.4 2.8 -0.5
v 0.5 2.8 -0.5
v 0.6 2.8 -0.5
v 0.4 2.8 -0.6
v 0.5 2.8 -0.6
v 0.5 2.1 -0.5
v 0.6 2.1 -0.5
v 0.5 2.1 -0.6
v 0.6 2.1 -0.6
v 0.4 2.3 -0.3
v 0.6 2.3 -0.3
v 0 2.3 -0.4
v 0.4 2.3 -0.4
v 0.6 2.3 -0.4
v 0.7 2.3 -0.4
v 0.8 2.3 -0.4
v 1 2.3 -0.4
v 0.1 2.3 -0.5
v 0.2 2.3 -0.5
v 0.7 2.3 -0.5
v 0.8 2.3 -0.5
v 0 2.3 -0.6
v 0.1 2.3 -0.6
v 0.2 2.3 -0.6
v 0.4 2.3 -0.6
v 0.6 2.3 -0.6
v 1 2.3 -0.6
v 0.4 2.3 -0.7
v 0.6 2.3 -0.7
v 0.4 2.4 -0.4
v 0.5 2.4 -0.4
v 0.4 2.4 -0.5
v 0.5 2.4 -0.5
v 0.6 2.4 -0.5
v 0.5 2.4 -0.6
v 0.6 2.4 -0.6
v 0.4 2.5 -0.5
v 0.5 2.5 -0.5
v 0.4 2.5 -0.6
v 0.5 2.5 -0.6
v 0.5 2.7 -0.4
v 0.6 2.7 -0.4
v 0.4 2.7 -0.5
v 0.5 2.7 -0.5
v 0.6 2.7 -0.5
v 0.4 2.7 -0.6
v 0.5 2.7 -0.6
v 0.4 2.9 -0.4
v 0.5 2.9 -0.4
v 0.4 2.9 -0.5
v 0.5 2.9 -0.5
v 0.6 2.9 -0.5
v 0.5 2.9 -0.6
v 0.6 2.9 -0.6
v 0.5 3 -0.4
v 0.6 3 -0.4
v 0.4 3 -0.5
v 0.5 3 -0.5
v 0.6 3 -0.5
v 0.4 3 -0.6
v 0.5 3 -0.6

# faces
f 3/2/1 2/2/1 1/2/1
f 4/2/1 2/2/1 3/2/1
f 7/2/1 6/2/1 5/2/1
f 8/2/1 6/2/1 7/2/1
f 12/1/1 10/1/1 9/1/1
f 14/1/1 12/1/1 11/1/1
f 15/1/1 10/1/1 12/1/1
f 15/1/1 12/1/1 14/1/1
f 17/2/1 14/2/1 13/2/1
f 18/2/1 14/2/1 17/2/1
f 19/2/1 16/2/1 15/2/1
f 20/2/1 16/2/1 19/2/1
f 21/1/1 19/1/1 18/1/1
f 22/1/1 19/1/1 21/1/1
f 24/1/1 19/1/1 22/1/1
f 25/1/1 19/1/1 24/1/1
f 26/1/1 24/1/1 23/1/1
f 28/1/1 26/1/1 23/1/1
f 28/1/1 27/1/1 26/1/1
f 29/1/1 27/1/1 28/1/1
f 30/1/1 28/1/1 23/1/1
f 32/1/1 30/1/1 23/1/1
f 32/1/1 31/1/1 30/1/1
f 33/1/1 31/1/1 32/1/1
f 34/1/1 31/1/1 33/1/1
f 35/1/1 31/1/1 34/1/1
f 38/1/1 37/1/1 36/1/1
f 39/1/1 37/1/1 38/1/1
f 42/1/1 41/1/1 40/1/1
f 43/1/1 41/1/1 42/1/1
f 45/1/1 44/1/1 43/1/1
f 46/1/1 44/1/1 45/1/1
f 49/1/1 48/1/1 47/1/1
f 50/1/1 48/1/1 49/1/1
f 53/1/1 52/1/1 51/1/1
f 54/1/1 52/1/1 53/1/1
f 57/2/1 56/2/1 55/2/1
f 58/2/1 56/2/1 57/2/1
f 59/2/2 60/2/2 61/2/2
f 61/2/2 60/2/2 62/2/2
f 63/1/2 64/1/2 65/1/2
f 65/1/2 64/1/2 66/1/2
f 67/1/2 68/1/2 69/1/2
f 69/1/2 68/1/2 70/1/2
f 71/1/2 72/1/2 73/1/2
f 73/1/2 72/1/2 74/1/2
f 75/1/2 76/1/2 77/1/2
f 77/1/2 76/1/2 78/1/2
f 79/1/2 80/1/2 81/1/2
f 81/1/2 80/1/2 82/1/2
f 79/1/2 81/1/2 84/1/2
f 84/1/2 81/1/2 85/1/2
f 83/2/2 84/2/2 88/2/2
f 88/2/2 84/2/2 89/2/2
f 86/2/2 87/2/2 90/2/2
f 90/2/2 87/2/2 91/2/2
f 89/1/2 90/1/2 92/1/2
f 92/1/2 90/1/2 93/1/2
f 89/1/2 92/1/2 94/1/2
f 89/1/2 94/1/2 96/1/2
f 94/1/2 95/1/2 96/1/2
f 96/1/2 95/1/2 97/1/2
f 97/1/2 95/1/2 99/1/2
f 99/1/2 95/1/2 100/1/2
f 98/1/2 99/1/2 100/1/2
f 100/1/2 95/1/2 101/1/2
f 98/1/2 100/1/2 102/1/2
f 102/1/2 100/1/2 103/1/2
f 104/2/2 105/2/2 106/2/2
f 106/2/2 105/2/2 107/2/2
f 108/2/2 109/2/2 110/2/2
f 110/2/2 109/2/2 111/2/2
f 114/2/3 113/2/3 112/2/3
f 115/2/3 113/2/3 114/2/3
f 119/2/3 117/2/3 116/2/3
f 120/2/3 117/2/3 119/2/3
f 125/1/3 119/1/3 118/1/3
f 126/1/3 121/1/3 120/1/3
f 127/1/3 123/1/3 122/1/3
f 128/1/3 123/1/3 127/1/3
f 129/1/3 123/1/3 128/1/3
f 130/1/3 123/1/3 129/1/3
f 132/1/3 125/1/3 124/1/3
f 133/1/3 119/1/3 125/1/3
f 133/1/3 125/1/3 132/1/3
f 134/1/3 126/1/3 120/1/3
f 134/1/3 127/1/3 126/1/3
f 134/1/3 128/1/3 127/1/3
f 135/1/3 128/1/3 134/1/3
f 136/1/3 131/1/3 130/1/3
f 136/1/3 130/1/3 129/1/3
f 137/1/3 131/1/3 136/1/3
f 138/2/3 134/2/3 133/2/3
f 139/2/3 134/2/3 138/2/3
f 142/2/3 141/2/3 140/2/3
f 143/2/3 141/2/3 142/2/3
f 150/1/3 145/1/3 144/1/3
f 151/1/3 145/1/3 150/1/3
f 152/1/3 147/1/3 146/1/3
f 153/1/3 147/1/3 152/1/3
f 156/1/3 149/1/3 148/1/3
f 157/1/3 149/1/3 156/1/3
f 158/1/3 155/1/3 154/1/3
f 159/1/3 155/1/3 158/1/3
f 162/2/3 161/2/3 160/2/3
f 163/2/3 161/2/3 162/2/3
f 164/2/4 165/2/4 166/2/4
f 166/2/4 165/2/4 167/2/4
f 168/1/4 169/1/4 175/1/4
f 175/1/4 169/1/4 176/1/4
f 170/1/4 171/1/4 177/1/4
f 177/1/4 171/1/4 178/1/4
f 172/1/4 173/1/4 181/1/4
f 181/1/4 173/1/4 182/1/4
f 174/1/4 175/1/4 183/1/4
f 183/1/4 175/1/4 184/1/4
f 179/1/4 180/1/4 185/1/4
f 185/1/4 180/1/4 186/1/4
f 187/2/4 188/2/4 189/2/4
f 189/2/4 188/2/4 190/2/4
f 191/2/4 192/2/4 194/2/4
f 194/2/4 192/2/4 195/2/4
f 193/1/4 194/1/4 201/1/4
f 201/1/4 194/1/4 202/1/4
f 195/1/4 196/1/4 203/1/4
f 203/1/4 196/1/4 204/1/4
f 197/1/4 198/1/4 205/1/4
f 205/1/4 198/1/4 206/1/4
f 199/1/4 200/1/4 207/1/4
f 207/1/4 200/1/4 208/1/4
f 208/1/4 200/1/4 209/1/4
f 193/1/4 201/1/4 210/1/4
f 210/1/4 201/1/4 211/1/4
f 195/1/4 203/1/4 213/1/4
f 213/1/4 203/1/4 214/1/4
f 205/1/4 206/1/4 215/1/4
f 207/1/4 208/1/4 215/1/4
f 206/1/4 207/1/4 215/1/4
f 204/1/4 205/1/4 215/1/4
f 215/1/4 208/1/4 216/1/4
f 212/2/4 213/2/4 217/2/4
f 217/2/4 213/2/4 218/2/4
f 219/2/4 220/2/4 221/2/4
f 221/2/4 220/2/4 222/2/4
f 226/1/5 224/1/5 223/1/5
f 227/1/5 226/1/5 225/1/5
f 228/1/5 224/1/5 226/1/5
f 228/1/5 226/1/5 227/1/5
f 231/1/5 230/1/5 229/1/5
f 232/1/5 230/1/5 231/1/5
f 236/2/5 234/2/5 233/2/5
f 237/2/5 234/2/5 236/2/5
f 241/2/5 236/2/5 235/2/5
f 242/2/5 236/2/5 241/2/5
f 244/2/5 238/2/5 237/2/5
f 245/2/5 238/2/5 244/2/5
f 246/2/5 240/2/5 239/2/5
f 247/2/5 241/2/5 235/2/5
f 248/2/5 241/2/5 247/2/5
f 249/2/5 236/2/5 242/2/5
f 250/2/5 236/2/5 249/2/5
f 251/1/5 244/1/5 243/1/5
f 252/2/5 245/2/5 244/2/5
f 252/2/5 246/2/5 245/2/5
f 252/1/5 244/1/5 251/1/5
f 253/2/5 240/2/5 246/2/5
f 253/2/5 246/2/5 252/2/5
f 254/2/5 251/2/5 250/2/5
f 254/2/5 252/2/5 251/2/5
f 255/2/5 252/2/5 254/2/5
f 258/1/5 257/1/5 256/1/5
f 259/1/5 257/1/5 258/1/5
f 261/1/5 260/1/5 259/1/5
f 262/1/5 260/1/5 261/1/5
f 265/1/5 264/1/5 263/1/5
f 266/1/5 264/1/5 265/1/5
f 270/1/5 268/1/5 267/1/5
f 271/1/5 268/1/5 270/1/5
f 272/1/5 270/1/5 269/1/5
f 273/1/5 270/1/5 272/1/5
f 274/1/6 275/1/6 276/1/6
f 276/1/6 275/1/6 277/1/6
f 278/2/6 279/2/6 281/2/6
f 281/2/6 279/2/6 282/2/6
f 280/2/6 281/2/6 286/2/6
f 286/2/6 281/2/6 287/2/6
f 282/2/6 283/2/6 288/2/6
f 284/2/6 285/2/6 289/2/6
f 280/2/6 286/2/6 290/2/6
f 290/2/6 286/2/6 291/2/6
f 287/2/6 281/2/6 292/2/6
f 292/2/6 281/2/6 293/2/6
f 282/2/6 288/2/6 294/2/6
f 288/2/6 289/2/6 294/2/6
f 289/2/6 285/2/6 295/2/6
f 294/2/6 289/2/6 295/2/6
f 293/2/6 294/2/6 296/2/6
f 296/2/6 294/2/6 297/2/6
f 298/1/6 299/1/6 300/1/6
f 300/1/6 299/1/6 301/1/6
f 301/1/6 302/1/6 303/1/6
f 303/1/6 302/1/6 304/1/6
f 305/1/6 306/1/6 307/1/6
f 307/1/6 306/1/6 308/1/6
f 309/1/6 310/1/6 312/1/6
f 312/1/6 310/1/6 313/1/6
f 311/1/6 312/1/6 314/1/6
f 314/1/6 312/1/6 315/1/6
f 316/1/6 317/1/6 318/1/6
f 318/1/6 317/1/6 319/1/6
f 319/1/6 320/1/6 321/1/6
f 321/1/6 320/1/6 322/1/6
f 323/1/6 324/1/6 326/1/6
f 326/1/6 324/1/6 327/1/6
f 325/1/6 326/1/6 328/1/6
f 328/1/6 326/1/6 329/1/6
