# ProBuilder 4.2.3
# https://unity3d.com/unity/features/worldbuilding/probuilder
# 3/9/2020 7:27:07 PM

mtllib ./CellWalls.mtl
o CellWalls

g CellWalls
v 0 0 0
v -1 0 0
v 0 1 0
v -1 1 0
v -11.0001 0 0
v -11.0001 0 -1
v -11.0001 1 0
v -11.0001 1 -1
v -1 0 -11.0001
v 0 0 -11.0001
v -1 1 -11.0001
v 0 1 -11.0001
v 0 0 -1
v 0 1 -1
v 0 7 0
v -1 7 0
v 0 7 -1
v -1 7 -1
v -1 0 -1
v -10 0 -1
v -10 0 0
v -10 1 0
v -1 1 -1
v -10 1 -1
v -10 1 -11.0001
v -11.0001 1 -11.0001
v -11.0001 0 -11.0001
v -10 0 -11.0001
v -10 7 0
v -10 7 -1
v -11.0001 7 0
v -11.0001 7 -1
v -11.0001 7 -10
v -10 7 -10
v -11.0001 7 -11.0001
v -10 7 -11.0001
v -11.0001 0 -10
v -11.0001 1 -10
v -10 0 -10
v -10 1 -10
v -6.999901 1 -10
v -6.999901 1 -11.0001
v -6.999901 0 -11.0001
v -6.999901 0 -10
v -6.999901 7 -10
v -6.999901 7 -11.0001
v 0 0 -10
v -1 0 -10
v -1 1 -10
v -4.000198 0 -10
v -4.000198 0 -11.0001
v -4.000198 1 -11.0001
v -4.000198 1 -10
v 0 1 -10
v -1 7 -10
v 0 7 -10
v -1 7 -11.0001
v 0 7 -11.0001
v -4.000099 7 -11.0001
v -4.000099 7 -10

vt 0 0
vt -1 0
vt 0 1
vt -1 1
vt 1 0
vt 1 1
vt 0 -1
vt 1 -1
vt -1 -1
vt -10 -1
vt -10 0
vt -11.0001 -1
vt -11.0001 0
vt -10 1
vt -11.0001 1
vt 10 1
vt 10 0
vt 11.0001 1
vt 11.0001 0
vt 10 -1
vt 11.0001 -1
vt 11.0001 -10
vt 10 -10
vt 11.0001 -11.0001
vt 10 -11.0001
vt -10 -10
vt -11.0001 -10
vt -10 -11.0001
vt -11.0001 -11.0001
vt 6.999901 -10
vt 6.999901 -11.0001
vt 6.999901 1
vt 6.999901 0
vt -6.999901 -11.0001
vt -6.999901 -10
vt -6.999901 0
vt -6.999901 1
vt 0 -10
vt -1 -10
vt 0 -11.0001
vt -1 -11.0001
vt 1 -10
vt 1 -11.0001
vt -4.000099 -10
vt -4.000099 -11.0001
vt -4.000099 1
vt -4.000099 0
vt 4.000099 0
vt 4.000099 1
vt 4.000099 -11.0001
vt 4.000099 -10
vt 0 7
vt -1 7
vt 1 7
vt -10 7
vt 10 7
vt -11.0001 7
vt 11.0001 7
vt 6.999901 7
vt -6.999901 7
vt -4.000099 7
vt 4.000099 7

vn 0 0 1
vn -1 0 0
vn 0 0 -1
vn 1 0 0
vn 0 1 0
vn 0 -1 0

usemtl Prototype_512x512_Grey2
f 3/3/1 4/4/1 2/2/1 1/1/1
f 7/3/2 8/4/2 6/2/2 5/1/2
f 11/6/3 12/3/3 10/1/3 9/5/3
f 14/6/4 3/3/4 1/1/4 13/5/4
f 17/7/5 18/8/5 16/5/5 15/1/5
f 1/1/6 2/2/6 19/9/6 13/7/6
f 20/10/6 19/9/6 2/2/6 21/11/6
f 6/12/6 20/10/6 21/11/6 5/13/6
f 4/4/1 22/14/1 21/11/1 2/2/1
f 22/14/1 7/15/1 5/13/1 21/11/1
f 19/5/3 20/17/3 24/16/3 23/6/3
f 28/17/3 27/19/3 26/18/3 25/16/3
f 29/17/5 16/5/5 18/8/5 30/20/5
f 31/19/5 29/17/5 30/20/5 32/21/5
f 32/21/5 30/20/5 34/23/5 33/22/5
f 33/22/5 34/23/5 36/25/5 35/24/5
f 8/4/2 38/14/2 37/11/2 6/2/2
f 38/14/2 26/15/2 27/13/2 37/11/2
f 37/27/6 39/26/6 20/10/6 6/12/6
f 27/29/6 28/28/6 39/26/6 37/27/6
f 20/5/4 39/17/4 40/16/4 24/6/4
f 44/17/4 43/19/4 42/18/4 41/16/4
f 45/30/5 46/31/5 36/25/5 34/23/5
f 42/32/3 43/33/3 28/17/3 25/16/3
f 43/34/6 44/35/6 39/26/6 28/28/6
f 44/36/1 41/37/1 40/14/1 39/11/1
f 48/39/6 47/38/6 13/7/6 19/9/6
f 9/41/6 10/40/6 47/38/6 48/39/6
f 23/4/2 49/14/2 48/11/2 19/2/2
f 53/14/2 52/15/2 51/13/2 50/11/2
f 13/5/4 47/17/4 54/16/4 14/6/4
f 47/17/4 10/19/4 12/18/4 54/16/4
f 18/8/5 17/7/5 56/38/5 55/42/5
f 55/42/5 56/38/5 58/40/5 57/43/5
f 50/44/6 51/45/6 9/41/6 48/39/6
f 53/46/1 50/47/1 48/2/1 49/4/1
f 51/48/3 52/49/3 11/6/3 9/5/3
f 59/50/5 60/51/5 55/42/5 57/43/5
f 15/52/1 16/53/1 4/4/1 3/3/1
f 17/54/4 15/52/4 3/3/4 14/6/4
f 16/53/1 29/55/1 22/14/1 4/4/1
f 57/54/3 58/52/3 12/3/3 11/6/3
f 30/56/3 18/54/3 23/6/3 24/16/3
f 29/55/1 31/57/1 7/15/1 22/14/1
f 35/58/3 36/56/3 25/16/3 26/18/3
f 31/52/2 32/53/2 8/4/2 7/3/2
f 36/56/3 46/59/3 42/32/3 25/16/3
f 32/53/2 33/55/2 38/14/2 8/4/2
f 34/56/4 30/54/4 24/6/4 40/16/4
f 33/55/2 35/57/2 26/15/2 38/14/2
f 45/60/1 34/55/1 40/14/1 41/37/1
f 46/58/4 45/56/4 41/16/4 42/18/4
f 55/53/1 60/61/1 53/46/1 49/4/1
f 18/53/2 55/55/2 49/14/2 23/4/2
f 56/56/4 17/54/4 14/6/4 54/16/4
f 59/62/3 57/54/3 11/6/3 52/49/3
f 58/58/4 56/56/4 54/16/4 12/18/4
f 60/55/2 59/57/2 52/15/2 53/14/2
f 60/61/1 53/46/1 53/46/1 60/61/1
f 52/49/3 59/62/3 59/62/3 52/49/3
f 59/50/5 60/51/5 60/51/5 59/50/5
f 50/44/6 51/45/6 51/45/6 50/44/6
f 53/46/1 50/47/1 50/47/1 53/46/1
f 51/48/3 52/49/3 52/49/3 51/48/3

